<svg xmlns="http://www.w3.org/2000/svg" viewBox="0 0 800 420" width="800" height="420" role="img" aria-label="Nellore skyline illustration">
  <title>Nellore</title>
  <defs>
    <linearGradient id="sky" x1="0" y1="0" x2="0" y2="1">
      <stop offset="0" stop-color="#e9f5ed"/><stop offset="1" stop-color="#cfe8d9"/>
    </linearGradient>
    <linearGradient id="water" x1="0" y1="0" x2="0" y2="1">
      <stop offset="0" stop-color="#0f5c2b" stop-opacity=".55"/>
      <stop offset="1" stop-color="#0f5c2b" stop-opacity=".85"/>
    </linearGradient>
    <clipPath id="frame"><rect width="800" height="420"/></clipPath>
  </defs>
  <g clip-path="url(#frame)">
    <rect width="800" height="420" fill="url(#sky)"/>
    <g fill="#ffc93c" opacity=".22"><circle cx="621.7" cy="135.0" r="2.5"/><circle cx="115.7" cy="148.4" r="2.4"/><circle cx="797.3" cy="108.0" r="1.9"/><circle cx="302.2" cy="20.7" r="2.1"/><circle cx="412.1" cy="141.5" r="1.3"/><circle cx="777.8" cy="157.7" r="1.0"/><circle cx="750.1" cy="43.9" r="1.1"/><circle cx="491.5" cy="54.8" r="1.8"/><circle cx="306.2" cy="35.3" r="1.8"/><circle cx="602.2" cy="24.9" r="2.5"/><circle cx="450.1" cy="159.7" r="2.2"/><circle cx="332.4" cy="149.6" r="2.3"/><circle cx="28.3" cy="40.8" r="2.5"/><circle cx="274.1" cy="85.6" r="1.2"/><circle cx="489.1" cy="56.4" r="2.0"/><circle cx="285.7" cy="17.1" r="2.5"/><circle cx="713.9" cy="69.4" r="2.3"/><circle cx="209.5" cy="155.5" r="2.0"/><circle cx="17.8" cy="158.2" r="2.4"/><circle cx="569.9" cy="90.6" r="1.8"/><circle cx="113.6" cy="27.4" r="1.4"/><circle cx="26.0" cy="77.3" r="1.3"/></g>
    <circle cx="544.4" cy="122.7" r="34" fill="#ffc93c" opacity=".9"/>
    <circle cx="544.4" cy="122.7" r="58" fill="#ffc93c" opacity=".18"/>
    <g fill="#9ec7ae" opacity="0.7"><rect x="-20.0" y="207.1" width="29.8" height="132.9" rx="3"/><rect x="14.2" y="244.1" width="52.4" height="95.9" rx="3"/><rect x="71.2" y="197.6" width="50.5" height="142.4" rx="3"/><rect x="132.5" y="256.9" width="56.8" height="83.1" rx="3"/><rect x="194.2" y="201.6" width="36.9" height="138.4" rx="3"/><rect x="241.0" y="237.5" width="49.0" height="102.5" rx="3"/><rect x="301.3" y="212.4" width="42.8" height="127.6" rx="3"/><rect x="349.6" y="249.6" width="29.7" height="90.4" rx="3"/><rect x="388.1" y="196.4" width="36.8" height="143.6" rx="3"/><rect x="404.5" y="178.4" width="4" height="20"/><rect x="434.8" y="184.8" width="59.8" height="155.2" rx="3"/><rect x="446.7" y="172.8" width="35.9" height="14" rx="2"/><rect x="501.3" y="235.5" width="59.9" height="104.5" rx="3"/><rect x="566.5" y="195.5" width="49.6" height="144.5" rx="3"/><rect x="622.7" y="180.4" width="57.0" height="159.6" rx="3"/><rect x="688.9" y="207.4" width="48.7" height="132.6" rx="3"/><rect x="698.7" y="195.4" width="29.2" height="14" rx="2"/><rect x="746.0" y="236.3" width="43.1" height="103.7" rx="3"/><rect x="765.6" y="218.3" width="4" height="20"/><rect x="799.3" y="228.2" width="32.3" height="111.8" rx="3"/></g>
    <g fill="#17803d" opacity="1"><rect x="-20.0" y="160.6" width="52.3" height="219.4" rx="3"/><rect class="win" x="-14.0" y="172.6" width="6" height="9" rx="1.5"/><rect class="win" x="-14.0" y="194.6" width="6" height="9" rx="1.5"/><rect class="win" x="-14.0" y="216.6" width="6" height="9" rx="1.5"/><rect class="win" x="-14.0" y="238.6" width="6" height="9" rx="1.5"/><rect class="win" x="-14.0" y="260.6" width="6" height="9" rx="1.5"/><rect class="win" x="2.0" y="172.6" width="6" height="9" rx="1.5"/><rect class="win" x="2.0" y="194.6" width="6" height="9" rx="1.5"/><rect class="win" x="2.0" y="238.6" width="6" height="9" rx="1.5"/><rect class="win" x="2.0" y="282.6" width="6" height="9" rx="1.5"/><rect class="win" x="2.0" y="304.6" width="6" height="9" rx="1.5"/><rect class="win" x="2.0" y="326.6" width="6" height="9" rx="1.5"/><rect class="win" x="18.0" y="194.6" width="6" height="9" rx="1.5"/><rect class="win" x="18.0" y="216.6" width="6" height="9" rx="1.5"/><rect class="win" x="18.0" y="238.6" width="6" height="9" rx="1.5"/><rect class="win" x="18.0" y="260.6" width="6" height="9" rx="1.5"/><rect class="win" x="18.0" y="282.6" width="6" height="9" rx="1.5"/><rect class="win" x="18.0" y="304.6" width="6" height="9" rx="1.5"/><rect x="45.4" y="172.8" width="35.4" height="207.2" rx="3"/><rect class="win" x="51.4" y="184.8" width="6" height="9" rx="1.5"/><rect class="win" x="51.4" y="206.8" width="6" height="9" rx="1.5"/><rect class="win" x="51.4" y="228.8" width="6" height="9" rx="1.5"/><rect class="win" x="67.4" y="184.8" width="6" height="9" rx="1.5"/><rect class="win" x="67.4" y="294.8" width="6" height="9" rx="1.5"/><rect class="win" x="67.4" y="316.8" width="6" height="9" rx="1.5"/><rect x="89.5" y="182.2" width="57.7" height="197.8" rx="3"/><rect class="win" x="95.5" y="216.2" width="6" height="9" rx="1.5"/><rect class="win" x="95.5" y="260.2" width="6" height="9" rx="1.5"/><rect class="win" x="95.5" y="282.2" width="6" height="9" rx="1.5"/><rect class="win" x="95.5" y="304.2" width="6" height="9" rx="1.5"/><rect class="win" x="111.5" y="194.2" width="6" height="9" rx="1.5"/><rect class="win" x="111.5" y="238.2" width="6" height="9" rx="1.5"/><rect class="win" x="111.5" y="260.2" width="6" height="9" rx="1.5"/><rect class="win" x="111.5" y="282.2" width="6" height="9" rx="1.5"/><rect class="win" x="111.5" y="304.2" width="6" height="9" rx="1.5"/><rect class="win" x="111.5" y="326.2" width="6" height="9" rx="1.5"/><rect class="win" x="127.5" y="216.2" width="6" height="9" rx="1.5"/><rect class="win" x="127.5" y="238.2" width="6" height="9" rx="1.5"/><rect class="win" x="127.5" y="260.2" width="6" height="9" rx="1.5"/><rect class="win" x="127.5" y="326.2" width="6" height="9" rx="1.5"/><rect x="155.8" y="207.6" width="73.1" height="172.4" rx="3"/><rect x="190.3" y="189.6" width="4" height="20"/><rect class="win" x="161.8" y="219.6" width="6" height="9" rx="1.5"/><rect class="win" x="161.8" y="241.6" width="6" height="9" rx="1.5"/><rect class="win" x="161.8" y="263.6" width="6" height="9" rx="1.5"/><rect class="win" x="161.8" y="285.6" width="6" height="9" rx="1.5"/><rect class="win" x="177.8" y="219.6" width="6" height="9" rx="1.5"/><rect class="win" x="177.8" y="329.6" width="6" height="9" rx="1.5"/><rect class="win" x="193.8" y="219.6" width="6" height="9" rx="1.5"/><rect class="win" x="193.8" y="241.6" width="6" height="9" rx="1.5"/><rect class="win" x="193.8" y="285.6" width="6" height="9" rx="1.5"/><rect class="win" x="193.8" y="307.6" width="6" height="9" rx="1.5"/><rect class="win" x="193.8" y="329.6" width="6" height="9" rx="1.5"/><rect class="win" x="209.8" y="219.6" width="6" height="9" rx="1.5"/><rect class="win" x="209.8" y="241.6" width="6" height="9" rx="1.5"/><rect class="win" x="209.8" y="263.6" width="6" height="9" rx="1.5"/><rect class="win" x="209.8" y="329.6" width="6" height="9" rx="1.5"/><rect x="235.8" y="206.8" width="71.4" height="173.2" rx="3"/><rect class="win" x="241.8" y="218.8" width="6" height="9" rx="1.5"/><rect class="win" x="241.8" y="262.8" width="6" height="9" rx="1.5"/><rect class="win" x="241.8" y="284.8" width="6" height="9" rx="1.5"/><rect class="win" x="257.8" y="218.8" width="6" height="9" rx="1.5"/><rect class="win" x="257.8" y="284.8" width="6" height="9" rx="1.5"/><rect class="win" x="257.8" y="306.8" width="6" height="9" rx="1.5"/><rect class="win" x="257.8" y="328.8" width="6" height="9" rx="1.5"/><rect class="win" x="273.8" y="218.8" width="6" height="9" rx="1.5"/><rect class="win" x="273.8" y="240.8" width="6" height="9" rx="1.5"/><rect class="win" x="273.8" y="306.8" width="6" height="9" rx="1.5"/><rect class="win" x="289.8" y="262.8" width="6" height="9" rx="1.5"/><rect x="318.5" y="203.3" width="41.6" height="176.7" rx="3"/><rect class="win" x="324.5" y="237.3" width="6" height="9" rx="1.5"/><rect class="win" x="324.5" y="325.3" width="6" height="9" rx="1.5"/><rect class="win" x="340.5" y="215.3" width="6" height="9" rx="1.5"/><rect class="win" x="340.5" y="281.3" width="6" height="9" rx="1.5"/><rect class="win" x="340.5" y="303.3" width="6" height="9" rx="1.5"/><rect class="win" x="340.5" y="325.3" width="6" height="9" rx="1.5"/><rect x="365.2" y="244.2" width="73.6" height="135.8" rx="3"/><rect class="win" x="371.2" y="256.2" width="6" height="9" rx="1.5"/><rect class="win" x="371.2" y="278.2" width="6" height="9" rx="1.5"/><rect class="win" x="371.2" y="300.2" width="6" height="9" rx="1.5"/><rect class="win" x="371.2" y="322.2" width="6" height="9" rx="1.5"/><rect class="win" x="387.2" y="256.2" width="6" height="9" rx="1.5"/><rect class="win" x="387.2" y="278.2" width="6" height="9" rx="1.5"/><rect class="win" x="387.2" y="300.2" width="6" height="9" rx="1.5"/><rect class="win" x="387.2" y="322.2" width="6" height="9" rx="1.5"/><rect class="win" x="403.2" y="256.2" width="6" height="9" rx="1.5"/><rect class="win" x="403.2" y="300.2" width="6" height="9" rx="1.5"/><rect class="win" x="419.2" y="278.2" width="6" height="9" rx="1.5"/><rect class="win" x="419.2" y="300.2" width="6" height="9" rx="1.5"/><rect x="451.7" y="192.1" width="68.8" height="187.9" rx="3"/><rect x="484.1" y="174.1" width="4" height="20"/><rect class="win" x="457.7" y="248.1" width="6" height="9" rx="1.5"/><rect class="win" x="457.7" y="314.1" width="6" height="9" rx="1.5"/><rect class="win" x="473.7" y="204.1" width="6" height="9" rx="1.5"/><rect class="win" x="473.7" y="270.1" width="6" height="9" rx="1.5"/><rect class="win" x="473.7" y="292.1" width="6" height="9" rx="1.5"/><rect class="win" x="489.7" y="226.1" width="6" height="9" rx="1.5"/><rect class="win" x="489.7" y="270.1" width="6" height="9" rx="1.5"/><rect class="win" x="489.7" y="292.1" width="6" height="9" rx="1.5"/><rect class="win" x="489.7" y="314.1" width="6" height="9" rx="1.5"/><rect class="win" x="505.7" y="204.1" width="6" height="9" rx="1.5"/><rect class="win" x="505.7" y="226.1" width="6" height="9" rx="1.5"/><rect class="win" x="505.7" y="270.1" width="6" height="9" rx="1.5"/><rect x="528.8" y="237.4" width="47.8" height="142.6" rx="3"/><rect x="550.6" y="219.4" width="4" height="20"/><rect class="win" x="534.8" y="249.4" width="6" height="9" rx="1.5"/><rect class="win" x="534.8" y="293.4" width="6" height="9" rx="1.5"/><rect class="win" x="550.8" y="293.4" width="6" height="9" rx="1.5"/><rect class="win" x="550.8" y="315.4" width="6" height="9" rx="1.5"/><rect x="584.6" y="231.1" width="50.6" height="148.9" rx="3"/><rect class="win" x="590.6" y="243.1" width="6" height="9" rx="1.5"/><rect class="win" x="590.6" y="265.1" width="6" height="9" rx="1.5"/><rect class="win" x="590.6" y="287.1" width="6" height="9" rx="1.5"/><rect class="win" x="590.6" y="309.1" width="6" height="9" rx="1.5"/><rect class="win" x="606.6" y="243.1" width="6" height="9" rx="1.5"/><rect class="win" x="606.6" y="287.1" width="6" height="9" rx="1.5"/><rect class="win" x="622.6" y="265.1" width="6" height="9" rx="1.5"/><rect class="win" x="622.6" y="309.1" width="6" height="9" rx="1.5"/><rect x="642.1" y="172.3" width="44.8" height="207.7" rx="3"/><rect class="win" x="648.1" y="184.3" width="6" height="9" rx="1.5"/><rect class="win" x="648.1" y="206.3" width="6" height="9" rx="1.5"/><rect class="win" x="648.1" y="250.3" width="6" height="9" rx="1.5"/><rect class="win" x="664.1" y="184.3" width="6" height="9" rx="1.5"/><rect class="win" x="664.1" y="206.3" width="6" height="9" rx="1.5"/><rect class="win" x="664.1" y="228.3" width="6" height="9" rx="1.5"/><rect class="win" x="664.1" y="272.3" width="6" height="9" rx="1.5"/><rect x="699.3" y="246.6" width="60.4" height="133.4" rx="3"/><rect class="win" x="705.3" y="280.6" width="6" height="9" rx="1.5"/><rect class="win" x="705.3" y="302.6" width="6" height="9" rx="1.5"/><rect class="win" x="705.3" y="324.6" width="6" height="9" rx="1.5"/><rect class="win" x="721.3" y="258.6" width="6" height="9" rx="1.5"/><rect class="win" x="737.3" y="258.6" width="6" height="9" rx="1.5"/><rect x="769.5" y="156.6" width="69.0" height="223.4" rx="3"/><rect class="win" x="775.5" y="168.6" width="6" height="9" rx="1.5"/><rect class="win" x="775.5" y="190.6" width="6" height="9" rx="1.5"/><rect class="win" x="775.5" y="256.6" width="6" height="9" rx="1.5"/><rect class="win" x="775.5" y="300.6" width="6" height="9" rx="1.5"/><rect class="win" x="791.5" y="190.6" width="6" height="9" rx="1.5"/><rect class="win" x="791.5" y="234.6" width="6" height="9" rx="1.5"/><rect class="win" x="791.5" y="278.6" width="6" height="9" rx="1.5"/><rect class="win" x="807.5" y="190.6" width="6" height="9" rx="1.5"/><rect class="win" x="807.5" y="256.6" width="6" height="9" rx="1.5"/><rect class="win" x="807.5" y="300.6" width="6" height="9" rx="1.5"/><rect class="win" x="823.5" y="212.6" width="6" height="9" rx="1.5"/><rect class="win" x="823.5" y="256.6" width="6" height="9" rx="1.5"/><rect class="win" x="823.5" y="300.6" width="6" height="9" rx="1.5"/><rect class="win" x="823.5" y="322.6" width="6" height="9" rx="1.5"/></g>
    <g fill="#0f5c2b" opacity="1"><rect x="-20.0" y="317.7" width="59.6" height="114.3" rx="3"/><rect class="win" x="-14.0" y="373.7" width="6" height="9" rx="1.5"/><rect class="win" x="2.0" y="329.7" width="6" height="9" rx="1.5"/><rect class="win" x="2.0" y="351.7" width="6" height="9" rx="1.5"/><rect class="win" x="2.0" y="373.7" width="6" height="9" rx="1.5"/><rect x="43.9" y="296.8" width="47.2" height="135.2" rx="3"/><rect class="win" x="49.9" y="308.8" width="6" height="9" rx="1.5"/><rect class="win" x="49.9" y="330.8" width="6" height="9" rx="1.5"/><rect class="win" x="49.9" y="352.8" width="6" height="9" rx="1.5"/><rect class="win" x="65.9" y="352.8" width="6" height="9" rx="1.5"/><rect class="win" x="65.9" y="374.8" width="6" height="9" rx="1.5"/><rect x="103.0" y="293.5" width="78.3" height="138.5" rx="3"/><rect x="140.2" y="275.5" width="4" height="20"/><rect class="win" x="109.0" y="305.5" width="6" height="9" rx="1.5"/><rect class="win" x="109.0" y="327.5" width="6" height="9" rx="1.5"/><rect class="win" x="109.0" y="371.5" width="6" height="9" rx="1.5"/><rect class="win" x="125.0" y="327.5" width="6" height="9" rx="1.5"/><rect class="win" x="125.0" y="349.5" width="6" height="9" rx="1.5"/><rect class="win" x="125.0" y="371.5" width="6" height="9" rx="1.5"/><rect class="win" x="141.0" y="305.5" width="6" height="9" rx="1.5"/><rect class="win" x="141.0" y="327.5" width="6" height="9" rx="1.5"/><rect class="win" x="141.0" y="371.5" width="6" height="9" rx="1.5"/><rect class="win" x="157.0" y="327.5" width="6" height="9" rx="1.5"/><rect class="win" x="157.0" y="371.5" width="6" height="9" rx="1.5"/><rect x="193.1" y="284.9" width="54.1" height="147.1" rx="3"/><rect class="win" x="199.1" y="296.9" width="6" height="9" rx="1.5"/><rect class="win" x="199.1" y="318.9" width="6" height="9" rx="1.5"/><rect class="win" x="199.1" y="340.9" width="6" height="9" rx="1.5"/><rect class="win" x="215.1" y="296.9" width="6" height="9" rx="1.5"/><rect class="win" x="215.1" y="318.9" width="6" height="9" rx="1.5"/><rect class="win" x="215.1" y="362.9" width="6" height="9" rx="1.5"/><rect class="win" x="231.1" y="296.9" width="6" height="9" rx="1.5"/><rect class="win" x="231.1" y="318.9" width="6" height="9" rx="1.5"/><rect class="win" x="231.1" y="340.9" width="6" height="9" rx="1.5"/><rect class="win" x="231.1" y="362.9" width="6" height="9" rx="1.5"/><rect x="252.1" y="320.8" width="85.5" height="111.2" rx="3"/><rect class="win" x="258.1" y="354.8" width="6" height="9" rx="1.5"/><rect class="win" x="258.1" y="376.8" width="6" height="9" rx="1.5"/><rect class="win" x="274.1" y="354.8" width="6" height="9" rx="1.5"/><rect class="win" x="274.1" y="376.8" width="6" height="9" rx="1.5"/><rect class="win" x="290.1" y="332.8" width="6" height="9" rx="1.5"/><rect class="win" x="290.1" y="376.8" width="6" height="9" rx="1.5"/><rect class="win" x="306.1" y="376.8" width="6" height="9" rx="1.5"/><rect class="win" x="322.1" y="332.8" width="6" height="9" rx="1.5"/><rect x="351.2" y="270.9" width="73.9" height="161.1" rx="3"/><rect class="win" x="357.2" y="304.9" width="6" height="9" rx="1.5"/><rect class="win" x="357.2" y="326.9" width="6" height="9" rx="1.5"/><rect class="win" x="357.2" y="348.9" width="6" height="9" rx="1.5"/><rect class="win" x="373.2" y="282.9" width="6" height="9" rx="1.5"/><rect class="win" x="373.2" y="326.9" width="6" height="9" rx="1.5"/><rect class="win" x="373.2" y="370.9" width="6" height="9" rx="1.5"/><rect class="win" x="389.2" y="282.9" width="6" height="9" rx="1.5"/><rect class="win" x="389.2" y="326.9" width="6" height="9" rx="1.5"/><rect class="win" x="389.2" y="348.9" width="6" height="9" rx="1.5"/><rect class="win" x="389.2" y="370.9" width="6" height="9" rx="1.5"/><rect class="win" x="405.2" y="282.9" width="6" height="9" rx="1.5"/><rect class="win" x="405.2" y="304.9" width="6" height="9" rx="1.5"/><rect class="win" x="405.2" y="348.9" width="6" height="9" rx="1.5"/><rect x="433.6" y="321.2" width="53.0" height="110.8" rx="3"/><rect class="win" x="439.6" y="333.2" width="6" height="9" rx="1.5"/><rect class="win" x="439.6" y="377.2" width="6" height="9" rx="1.5"/><rect class="win" x="455.6" y="377.2" width="6" height="9" rx="1.5"/><rect class="win" x="471.6" y="333.2" width="6" height="9" rx="1.5"/><rect class="win" x="471.6" y="355.2" width="6" height="9" rx="1.5"/><rect x="495.8" y="285.4" width="86.7" height="146.6" rx="3"/><rect class="win" x="501.8" y="341.4" width="6" height="9" rx="1.5"/><rect class="win" x="517.8" y="297.4" width="6" height="9" rx="1.5"/><rect class="win" x="517.8" y="319.4" width="6" height="9" rx="1.5"/><rect class="win" x="517.8" y="341.4" width="6" height="9" rx="1.5"/><rect class="win" x="517.8" y="363.4" width="6" height="9" rx="1.5"/><rect class="win" x="533.8" y="319.4" width="6" height="9" rx="1.5"/><rect class="win" x="533.8" y="363.4" width="6" height="9" rx="1.5"/><rect class="win" x="549.8" y="341.4" width="6" height="9" rx="1.5"/><rect class="win" x="549.8" y="363.4" width="6" height="9" rx="1.5"/><rect class="win" x="565.8" y="319.4" width="6" height="9" rx="1.5"/><rect class="win" x="565.8" y="363.4" width="6" height="9" rx="1.5"/><rect x="590.0" y="307.8" width="64.4" height="124.2" rx="3"/><rect x="602.9" y="295.8" width="38.7" height="14" rx="2"/><rect class="win" x="596.0" y="341.8" width="6" height="9" rx="1.5"/><rect class="win" x="596.0" y="363.8" width="6" height="9" rx="1.5"/><rect class="win" x="612.0" y="319.8" width="6" height="9" rx="1.5"/><rect class="win" x="612.0" y="341.8" width="6" height="9" rx="1.5"/><rect class="win" x="644.0" y="341.8" width="6" height="9" rx="1.5"/><rect class="win" x="644.0" y="363.8" width="6" height="9" rx="1.5"/><rect x="666.4" y="264.2" width="51.1" height="167.8" rx="3"/><rect class="win" x="672.4" y="276.2" width="6" height="9" rx="1.5"/><rect class="win" x="672.4" y="298.2" width="6" height="9" rx="1.5"/><rect class="win" x="672.4" y="320.2" width="6" height="9" rx="1.5"/><rect class="win" x="672.4" y="342.2" width="6" height="9" rx="1.5"/><rect class="win" x="688.4" y="276.2" width="6" height="9" rx="1.5"/><rect class="win" x="688.4" y="298.2" width="6" height="9" rx="1.5"/><rect class="win" x="688.4" y="320.2" width="6" height="9" rx="1.5"/><rect class="win" x="688.4" y="342.2" width="6" height="9" rx="1.5"/><rect class="win" x="704.4" y="276.2" width="6" height="9" rx="1.5"/><rect class="win" x="704.4" y="298.2" width="6" height="9" rx="1.5"/><rect class="win" x="704.4" y="320.2" width="6" height="9" rx="1.5"/><rect class="win" x="704.4" y="364.2" width="6" height="9" rx="1.5"/><rect x="727.4" y="268.3" width="63.0" height="163.7" rx="3"/><rect class="win" x="733.4" y="280.3" width="6" height="9" rx="1.5"/><rect class="win" x="733.4" y="346.3" width="6" height="9" rx="1.5"/><rect class="win" x="749.4" y="280.3" width="6" height="9" rx="1.5"/><rect class="win" x="749.4" y="324.3" width="6" height="9" rx="1.5"/><rect class="win" x="749.4" y="346.3" width="6" height="9" rx="1.5"/><rect class="win" x="765.4" y="280.3" width="6" height="9" rx="1.5"/><rect x="803.1" y="295.9" width="70.3" height="136.1" rx="3"/><rect class="win" x="809.1" y="329.9" width="6" height="9" rx="1.5"/><rect class="win" x="809.1" y="373.9" width="6" height="9" rx="1.5"/><rect class="win" x="825.1" y="307.9" width="6" height="9" rx="1.5"/><rect class="win" x="825.1" y="329.9" width="6" height="9" rx="1.5"/><rect class="win" x="825.1" y="351.9" width="6" height="9" rx="1.5"/><rect class="win" x="825.1" y="373.9" width="6" height="9" rx="1.5"/><rect class="win" x="841.1" y="307.9" width="6" height="9" rx="1.5"/><rect class="win" x="841.1" y="329.9" width="6" height="9" rx="1.5"/><rect class="win" x="841.1" y="351.9" width="6" height="9" rx="1.5"/><rect class="win" x="857.1" y="329.9" width="6" height="9" rx="1.5"/></g>
    <rect y="392" width="800" height="28" fill="#0f5c2b"/>
    <style>.win{fill:#ffc93c;opacity:.75}</style>
  </g>
</svg>