<svg xmlns="http://www.w3.org/2000/svg" viewBox="0 0 800 420" width="800" height="420" role="img" aria-label="Tirupati skyline illustration">
  <title>Tirupati</title>
  <defs>
    <linearGradient id="sky" x1="0" y1="0" x2="0" y2="1">
      <stop offset="0" stop-color="#e6f2ec"/><stop offset="1" stop-color="#bfdccd"/>
    </linearGradient>
    <linearGradient id="water" x1="0" y1="0" x2="0" y2="1">
      <stop offset="0" stop-color="#101312" stop-opacity=".55"/>
      <stop offset="1" stop-color="#101312" stop-opacity=".85"/>
    </linearGradient>
    <clipPath id="frame"><rect width="800" height="420"/></clipPath>
  </defs>
  <g clip-path="url(#frame)">
    <rect width="800" height="420" fill="url(#sky)"/>
    <g fill="#22a355" opacity=".22"><circle cx="680.0" cy="15.0" r="1.9"/><circle cx="679.9" cy="44.8" r="2.2"/><circle cx="412.5" cy="150.0" r="1.8"/><circle cx="745.5" cy="77.6" r="1.5"/><circle cx="111.7" cy="56.2" r="1.1"/><circle cx="696.4" cy="129.0" r="1.3"/><circle cx="132.9" cy="18.9" r="2.0"/><circle cx="99.5" cy="64.7" r="2.4"/><circle cx="538.9" cy="32.4" r="1.7"/><circle cx="387.4" cy="155.4" r="2.5"/><circle cx="687.3" cy="125.4" r="1.3"/><circle cx="212.8" cy="137.0" r="1.4"/><circle cx="38.5" cy="43.3" r="1.3"/><circle cx="9.7" cy="46.6" r="1.3"/><circle cx="391.3" cy="37.0" r="2.1"/><circle cx="766.2" cy="64.9" r="1.8"/><circle cx="440.9" cy="78.7" r="1.2"/><circle cx="554.3" cy="118.1" r="1.0"/><circle cx="294.3" cy="61.2" r="1.7"/><circle cx="715.8" cy="139.5" r="1.3"/><circle cx="472.6" cy="92.1" r="1.6"/><circle cx="709.3" cy="66.1" r="1.3"/></g>
    <circle cx="429.1" cy="85.7" r="34" fill="#ffc93c" opacity=".9"/>
    <circle cx="429.1" cy="85.7" r="58" fill="#ffc93c" opacity=".18"/>
    <g fill="#8fb9a1" opacity="0.7"><rect x="-20.0" y="194.3" width="59.5" height="145.7" rx="3"/><rect x="52.5" y="213.6" width="30.7" height="126.4" rx="3"/><rect x="89.1" y="240.1" width="38.1" height="99.9" rx="3"/><rect x="96.8" y="228.1" width="22.9" height="14" rx="2"/><rect x="136.2" y="180.6" width="28.8" height="159.4" rx="3"/><rect x="170.3" y="205.5" width="42.2" height="134.5" rx="3"/><rect x="223.7" y="187.5" width="53.2" height="152.5" rx="3"/><rect x="281.3" y="237.6" width="28.0" height="102.4" rx="3"/><rect x="293.3" y="219.6" width="4" height="20"/><rect x="322.0" y="251.0" width="39.6" height="89.0" rx="3"/><rect x="367.3" y="208.2" width="41.4" height="131.8" rx="3"/><rect x="416.6" y="188.0" width="28.7" height="152.0" rx="3"/><rect x="429.0" y="170.0" width="4" height="20"/><rect x="453.3" y="241.6" width="57.9" height="98.4" rx="3"/><rect x="516.7" y="240.2" width="46.2" height="99.8" rx="3"/><rect x="537.8" y="222.2" width="4" height="20"/><rect x="571.0" y="239.3" width="41.2" height="100.7" rx="3"/><rect x="626.1" y="242.0" width="55.0" height="98.0" rx="3"/><rect x="694.3" y="194.9" width="37.2" height="145.1" rx="3"/><rect x="701.8" y="182.9" width="22.3" height="14" rx="2"/><rect x="743.2" y="190.6" width="40.6" height="149.4" rx="3"/><rect x="795.9" y="235.2" width="26.2" height="104.8" rx="3"/><rect x="807.0" y="217.2" width="4" height="20"/></g>
    <g fill="#0f5c2b" opacity="1"><rect x="-20.0" y="240.1" width="38.7" height="139.9" rx="3"/><rect x="-12.3" y="228.1" width="23.2" height="14" rx="2"/><rect class="win" x="-14.0" y="274.1" width="6" height="9" rx="1.5"/><rect class="win" x="-14.0" y="318.1" width="6" height="9" rx="1.5"/><rect class="win" x="2.0" y="252.1" width="6" height="9" rx="1.5"/><rect class="win" x="2.0" y="274.1" width="6" height="9" rx="1.5"/><rect class="win" x="2.0" y="318.1" width="6" height="9" rx="1.5"/><rect x="24.7" y="164.7" width="66.0" height="215.3" rx="3"/><rect class="win" x="30.7" y="176.7" width="6" height="9" rx="1.5"/><rect class="win" x="30.7" y="198.7" width="6" height="9" rx="1.5"/><rect class="win" x="30.7" y="220.7" width="6" height="9" rx="1.5"/><rect class="win" x="30.7" y="286.7" width="6" height="9" rx="1.5"/><rect class="win" x="46.7" y="176.7" width="6" height="9" rx="1.5"/><rect class="win" x="46.7" y="242.7" width="6" height="9" rx="1.5"/><rect class="win" x="46.7" y="286.7" width="6" height="9" rx="1.5"/><rect class="win" x="62.7" y="176.7" width="6" height="9" rx="1.5"/><rect class="win" x="62.7" y="198.7" width="6" height="9" rx="1.5"/><rect class="win" x="62.7" y="286.7" width="6" height="9" rx="1.5"/><rect class="win" x="62.7" y="308.7" width="6" height="9" rx="1.5"/><rect class="win" x="78.7" y="176.7" width="6" height="9" rx="1.5"/><rect class="win" x="78.7" y="198.7" width="6" height="9" rx="1.5"/><rect class="win" x="78.7" y="220.7" width="6" height="9" rx="1.5"/><rect class="win" x="78.7" y="242.7" width="6" height="9" rx="1.5"/><rect class="win" x="78.7" y="308.7" width="6" height="9" rx="1.5"/><rect x="98.6" y="173.7" width="37.1" height="206.3" rx="3"/><rect x="106.0" y="161.7" width="22.3" height="14" rx="2"/><rect class="win" x="104.6" y="229.7" width="6" height="9" rx="1.5"/><rect class="win" x="104.6" y="251.7" width="6" height="9" rx="1.5"/><rect class="win" x="104.6" y="273.7" width="6" height="9" rx="1.5"/><rect class="win" x="104.6" y="317.7" width="6" height="9" rx="1.5"/><rect class="win" x="120.6" y="207.7" width="6" height="9" rx="1.5"/><rect class="win" x="120.6" y="229.7" width="6" height="9" rx="1.5"/><rect class="win" x="120.6" y="273.7" width="6" height="9" rx="1.5"/><rect class="win" x="120.6" y="295.7" width="6" height="9" rx="1.5"/><rect class="win" x="120.6" y="317.7" width="6" height="9" rx="1.5"/><rect x="141.9" y="241.2" width="52.8" height="138.8" rx="3"/><rect class="win" x="147.9" y="275.2" width="6" height="9" rx="1.5"/><rect class="win" x="147.9" y="297.2" width="6" height="9" rx="1.5"/><rect class="win" x="163.9" y="253.2" width="6" height="9" rx="1.5"/><rect class="win" x="163.9" y="275.2" width="6" height="9" rx="1.5"/><rect class="win" x="179.9" y="253.2" width="6" height="9" rx="1.5"/><rect class="win" x="179.9" y="275.2" width="6" height="9" rx="1.5"/><rect class="win" x="179.9" y="319.2" width="6" height="9" rx="1.5"/><rect x="208.6" y="214.9" width="55.2" height="165.1" rx="3"/><rect class="win" x="214.6" y="248.9" width="6" height="9" rx="1.5"/><rect class="win" x="214.6" y="270.9" width="6" height="9" rx="1.5"/><rect class="win" x="214.6" y="314.9" width="6" height="9" rx="1.5"/><rect class="win" x="230.6" y="226.9" width="6" height="9" rx="1.5"/><rect class="win" x="230.6" y="248.9" width="6" height="9" rx="1.5"/><rect class="win" x="230.6" y="270.9" width="6" height="9" rx="1.5"/><rect class="win" x="246.6" y="270.9" width="6" height="9" rx="1.5"/><rect class="win" x="246.6" y="292.9" width="6" height="9" rx="1.5"/><rect class="win" x="246.6" y="314.9" width="6" height="9" rx="1.5"/><rect x="274.6" y="261.4" width="39.6" height="118.6" rx="3"/><rect class="win" x="280.6" y="273.4" width="6" height="9" rx="1.5"/><rect class="win" x="280.6" y="295.4" width="6" height="9" rx="1.5"/><rect class="win" x="296.6" y="295.4" width="6" height="9" rx="1.5"/><rect x="319.7" y="150.7" width="35.2" height="229.3" rx="3"/><rect x="326.7" y="138.7" width="21.1" height="14" rx="2"/><rect class="win" x="325.7" y="162.7" width="6" height="9" rx="1.5"/><rect class="win" x="325.7" y="184.7" width="6" height="9" rx="1.5"/><rect class="win" x="325.7" y="206.7" width="6" height="9" rx="1.5"/><rect class="win" x="325.7" y="250.7" width="6" height="9" rx="1.5"/><rect class="win" x="325.7" y="272.7" width="6" height="9" rx="1.5"/><rect class="win" x="325.7" y="294.7" width="6" height="9" rx="1.5"/><rect class="win" x="325.7" y="316.7" width="6" height="9" rx="1.5"/><rect class="win" x="341.7" y="184.7" width="6" height="9" rx="1.5"/><rect class="win" x="341.7" y="272.7" width="6" height="9" rx="1.5"/><rect class="win" x="341.7" y="316.7" width="6" height="9" rx="1.5"/><rect x="365.7" y="165.6" width="70.6" height="214.4" rx="3"/><rect x="379.8" y="153.6" width="42.3" height="14" rx="2"/><rect class="win" x="371.7" y="177.6" width="6" height="9" rx="1.5"/><rect class="win" x="371.7" y="243.6" width="6" height="9" rx="1.5"/><rect class="win" x="371.7" y="309.6" width="6" height="9" rx="1.5"/><rect class="win" x="387.7" y="177.6" width="6" height="9" rx="1.5"/><rect class="win" x="387.7" y="199.6" width="6" height="9" rx="1.5"/><rect class="win" x="387.7" y="221.6" width="6" height="9" rx="1.5"/><rect class="win" x="387.7" y="243.6" width="6" height="9" rx="1.5"/><rect class="win" x="387.7" y="265.6" width="6" height="9" rx="1.5"/><rect class="win" x="387.7" y="287.6" width="6" height="9" rx="1.5"/><rect class="win" x="403.7" y="177.6" width="6" height="9" rx="1.5"/><rect class="win" x="403.7" y="199.6" width="6" height="9" rx="1.5"/><rect class="win" x="403.7" y="221.6" width="6" height="9" rx="1.5"/><rect class="win" x="403.7" y="243.6" width="6" height="9" rx="1.5"/><rect class="win" x="403.7" y="287.6" width="6" height="9" rx="1.5"/><rect class="win" x="403.7" y="309.6" width="6" height="9" rx="1.5"/><rect class="win" x="419.7" y="177.6" width="6" height="9" rx="1.5"/><rect class="win" x="419.7" y="221.6" width="6" height="9" rx="1.5"/><rect class="win" x="419.7" y="243.6" width="6" height="9" rx="1.5"/><rect class="win" x="419.7" y="265.6" width="6" height="9" rx="1.5"/><rect class="win" x="419.7" y="287.6" width="6" height="9" rx="1.5"/><rect class="win" x="419.7" y="309.6" width="6" height="9" rx="1.5"/><rect x="442.9" y="152.6" width="47.9" height="227.4" rx="3"/><rect x="452.5" y="140.6" width="28.7" height="14" rx="2"/><rect class="win" x="448.9" y="164.6" width="6" height="9" rx="1.5"/><rect class="win" x="448.9" y="186.6" width="6" height="9" rx="1.5"/><rect class="win" x="448.9" y="208.6" width="6" height="9" rx="1.5"/><rect class="win" x="448.9" y="252.6" width="6" height="9" rx="1.5"/><rect class="win" x="448.9" y="274.6" width="6" height="9" rx="1.5"/><rect class="win" x="448.9" y="296.6" width="6" height="9" rx="1.5"/><rect class="win" x="464.9" y="164.6" width="6" height="9" rx="1.5"/><rect class="win" x="464.9" y="186.6" width="6" height="9" rx="1.5"/><rect class="win" x="464.9" y="230.6" width="6" height="9" rx="1.5"/><rect class="win" x="464.9" y="252.6" width="6" height="9" rx="1.5"/><rect class="win" x="464.9" y="274.6" width="6" height="9" rx="1.5"/><rect x="495.5" y="250.4" width="43.8" height="129.6" rx="3"/><rect class="win" x="501.5" y="262.4" width="6" height="9" rx="1.5"/><rect class="win" x="501.5" y="284.4" width="6" height="9" rx="1.5"/><rect class="win" x="501.5" y="306.4" width="6" height="9" rx="1.5"/><rect class="win" x="517.5" y="284.4" width="6" height="9" rx="1.5"/><rect class="win" x="517.5" y="306.4" width="6" height="9" rx="1.5"/><rect class="win" x="517.5" y="328.4" width="6" height="9" rx="1.5"/><rect x="549.8" y="213.7" width="68.1" height="166.3" rx="3"/><rect class="win" x="555.8" y="225.7" width="6" height="9" rx="1.5"/><rect class="win" x="555.8" y="247.7" width="6" height="9" rx="1.5"/><rect class="win" x="555.8" y="269.7" width="6" height="9" rx="1.5"/><rect class="win" x="555.8" y="291.7" width="6" height="9" rx="1.5"/><rect class="win" x="555.8" y="313.7" width="6" height="9" rx="1.5"/><rect class="win" x="571.8" y="225.7" width="6" height="9" rx="1.5"/><rect class="win" x="571.8" y="269.7" width="6" height="9" rx="1.5"/><rect class="win" x="571.8" y="291.7" width="6" height="9" rx="1.5"/><rect class="win" x="571.8" y="313.7" width="6" height="9" rx="1.5"/><rect class="win" x="587.8" y="225.7" width="6" height="9" rx="1.5"/><rect class="win" x="587.8" y="247.7" width="6" height="9" rx="1.5"/><rect class="win" x="587.8" y="269.7" width="6" height="9" rx="1.5"/><rect class="win" x="587.8" y="291.7" width="6" height="9" rx="1.5"/><rect class="win" x="587.8" y="313.7" width="6" height="9" rx="1.5"/><rect class="win" x="603.8" y="225.7" width="6" height="9" rx="1.5"/><rect class="win" x="603.8" y="269.7" width="6" height="9" rx="1.5"/><rect class="win" x="603.8" y="291.7" width="6" height="9" rx="1.5"/><rect x="628.4" y="248.2" width="51.8" height="131.8" rx="3"/><rect x="652.2" y="230.2" width="4" height="20"/><rect class="win" x="634.4" y="260.2" width="6" height="9" rx="1.5"/><rect class="win" x="650.4" y="260.2" width="6" height="9" rx="1.5"/><rect class="win" x="650.4" y="282.2" width="6" height="9" rx="1.5"/><rect class="win" x="650.4" y="326.2" width="6" height="9" rx="1.5"/><rect class="win" x="666.4" y="260.2" width="6" height="9" rx="1.5"/><rect class="win" x="666.4" y="282.2" width="6" height="9" rx="1.5"/><rect x="691.0" y="267.1" width="54.1" height="112.9" rx="3"/><rect x="701.8" y="255.1" width="32.4" height="14" rx="2"/><rect class="win" x="697.0" y="279.1" width="6" height="9" rx="1.5"/><rect class="win" x="697.0" y="301.1" width="6" height="9" rx="1.5"/><rect class="win" x="697.0" y="323.1" width="6" height="9" rx="1.5"/><rect class="win" x="713.0" y="301.1" width="6" height="9" rx="1.5"/><rect x="754.0" y="223.5" width="53.1" height="156.5" rx="3"/><rect x="764.6" y="211.5" width="31.9" height="14" rx="2"/><rect class="win" x="760.0" y="235.5" width="6" height="9" rx="1.5"/><rect class="win" x="760.0" y="257.5" width="6" height="9" rx="1.5"/><rect class="win" x="760.0" y="279.5" width="6" height="9" rx="1.5"/><rect class="win" x="760.0" y="301.5" width="6" height="9" rx="1.5"/><rect class="win" x="760.0" y="323.5" width="6" height="9" rx="1.5"/><rect class="win" x="776.0" y="235.5" width="6" height="9" rx="1.5"/><rect class="win" x="776.0" y="279.5" width="6" height="9" rx="1.5"/><rect class="win" x="776.0" y="323.5" width="6" height="9" rx="1.5"/><rect class="win" x="792.0" y="257.5" width="6" height="9" rx="1.5"/><rect class="win" x="792.0" y="301.5" width="6" height="9" rx="1.5"/><rect x="812.9" y="228.3" width="44.9" height="151.7" rx="3"/><rect x="833.3" y="210.3" width="4" height="20"/><rect class="win" x="818.9" y="240.3" width="6" height="9" rx="1.5"/><rect class="win" x="818.9" y="262.3" width="6" height="9" rx="1.5"/><rect class="win" x="818.9" y="328.3" width="6" height="9" rx="1.5"/><rect class="win" x="834.9" y="262.3" width="6" height="9" rx="1.5"/><rect class="win" x="834.9" y="284.3" width="6" height="9" rx="1.5"/><rect class="win" x="834.9" y="306.3" width="6" height="9" rx="1.5"/><rect class="win" x="834.9" y="328.3" width="6" height="9" rx="1.5"/></g>
    <g fill="#101312" opacity="1"><rect x="-20.0" y="262.7" width="72.5" height="169.3" rx="3"/><rect x="-5.5" y="250.7" width="43.5" height="14" rx="2"/><rect class="win" x="-14.0" y="274.7" width="6" height="9" rx="1.5"/><rect class="win" x="-14.0" y="318.7" width="6" height="9" rx="1.5"/><rect class="win" x="-14.0" y="362.7" width="6" height="9" rx="1.5"/><rect class="win" x="2.0" y="274.7" width="6" height="9" rx="1.5"/><rect class="win" x="2.0" y="296.7" width="6" height="9" rx="1.5"/><rect class="win" x="2.0" y="318.7" width="6" height="9" rx="1.5"/><rect class="win" x="2.0" y="340.7" width="6" height="9" rx="1.5"/><rect class="win" x="2.0" y="362.7" width="6" height="9" rx="1.5"/><rect class="win" x="18.0" y="318.7" width="6" height="9" rx="1.5"/><rect class="win" x="18.0" y="362.7" width="6" height="9" rx="1.5"/><rect class="win" x="34.0" y="274.7" width="6" height="9" rx="1.5"/><rect class="win" x="34.0" y="296.7" width="6" height="9" rx="1.5"/><rect x="58.0" y="326.8" width="88.0" height="105.2" rx="3"/><rect x="75.6" y="314.8" width="52.8" height="14" rx="2"/><rect class="win" x="80.0" y="338.8" width="6" height="9" rx="1.5"/><rect class="win" x="112.0" y="338.8" width="6" height="9" rx="1.5"/><rect class="win" x="112.0" y="360.8" width="6" height="9" rx="1.5"/><rect class="win" x="128.0" y="338.8" width="6" height="9" rx="1.5"/><rect class="win" x="128.0" y="360.8" width="6" height="9" rx="1.5"/><rect x="150.5" y="266.7" width="68.3" height="165.3" rx="3"/><rect x="182.6" y="248.7" width="4" height="20"/><rect class="win" x="156.5" y="366.7" width="6" height="9" rx="1.5"/><rect class="win" x="172.5" y="300.7" width="6" height="9" rx="1.5"/><rect class="win" x="172.5" y="344.7" width="6" height="9" rx="1.5"/><rect class="win" x="188.5" y="344.7" width="6" height="9" rx="1.5"/><rect class="win" x="188.5" y="366.7" width="6" height="9" rx="1.5"/><rect class="win" x="204.5" y="278.7" width="6" height="9" rx="1.5"/><rect class="win" x="204.5" y="322.7" width="6" height="9" rx="1.5"/><rect x="231.1" y="317.4" width="87.7" height="114.6" rx="3"/><rect x="248.7" y="305.4" width="52.6" height="14" rx="2"/><rect class="win" x="237.1" y="329.4" width="6" height="9" rx="1.5"/><rect class="win" x="269.1" y="351.4" width="6" height="9" rx="1.5"/><rect class="win" x="285.1" y="351.4" width="6" height="9" rx="1.5"/><rect class="win" x="301.1" y="373.4" width="6" height="9" rx="1.5"/><rect x="323.9" y="339.8" width="81.9" height="92.2" rx="3"/><rect x="362.9" y="321.8" width="4" height="20"/><rect class="win" x="329.9" y="373.8" width="6" height="9" rx="1.5"/><rect class="win" x="345.9" y="351.8" width="6" height="9" rx="1.5"/><rect class="win" x="345.9" y="373.8" width="6" height="9" rx="1.5"/><rect class="win" x="361.9" y="351.8" width="6" height="9" rx="1.5"/><rect class="win" x="361.9" y="373.8" width="6" height="9" rx="1.5"/><rect class="win" x="377.9" y="373.8" width="6" height="9" rx="1.5"/><rect class="win" x="393.9" y="351.8" width="6" height="9" rx="1.5"/><rect class="win" x="393.9" y="373.8" width="6" height="9" rx="1.5"/><rect x="411.5" y="280.0" width="74.7" height="152.0" rx="3"/><rect class="win" x="417.5" y="314.0" width="6" height="9" rx="1.5"/><rect class="win" x="417.5" y="336.0" width="6" height="9" rx="1.5"/><rect class="win" x="417.5" y="358.0" width="6" height="9" rx="1.5"/><rect class="win" x="433.5" y="292.0" width="6" height="9" rx="1.5"/><rect class="win" x="433.5" y="336.0" width="6" height="9" rx="1.5"/><rect class="win" x="449.5" y="336.0" width="6" height="9" rx="1.5"/><rect class="win" x="449.5" y="358.0" width="6" height="9" rx="1.5"/><rect class="win" x="449.5" y="380.0" width="6" height="9" rx="1.5"/><rect class="win" x="465.5" y="292.0" width="6" height="9" rx="1.5"/><rect class="win" x="465.5" y="314.0" width="6" height="9" rx="1.5"/><rect class="win" x="465.5" y="336.0" width="6" height="9" rx="1.5"/><rect x="492.1" y="264.4" width="91.7" height="167.6" rx="3"/><rect class="win" x="498.1" y="320.4" width="6" height="9" rx="1.5"/><rect class="win" x="498.1" y="342.4" width="6" height="9" rx="1.5"/><rect class="win" x="514.1" y="276.4" width="6" height="9" rx="1.5"/><rect class="win" x="514.1" y="298.4" width="6" height="9" rx="1.5"/><rect class="win" x="514.1" y="320.4" width="6" height="9" rx="1.5"/><rect class="win" x="514.1" y="364.4" width="6" height="9" rx="1.5"/><rect class="win" x="530.1" y="276.4" width="6" height="9" rx="1.5"/><rect class="win" x="530.1" y="320.4" width="6" height="9" rx="1.5"/><rect class="win" x="530.1" y="342.4" width="6" height="9" rx="1.5"/><rect class="win" x="546.1" y="298.4" width="6" height="9" rx="1.5"/><rect class="win" x="546.1" y="342.4" width="6" height="9" rx="1.5"/><rect class="win" x="546.1" y="364.4" width="6" height="9" rx="1.5"/><rect class="win" x="562.1" y="320.4" width="6" height="9" rx="1.5"/><rect class="win" x="562.1" y="364.4" width="6" height="9" rx="1.5"/><rect x="588.2" y="284.0" width="65.9" height="148.0" rx="3"/><rect class="win" x="594.2" y="296.0" width="6" height="9" rx="1.5"/><rect class="win" x="594.2" y="318.0" width="6" height="9" rx="1.5"/><rect class="win" x="594.2" y="340.0" width="6" height="9" rx="1.5"/><rect class="win" x="610.2" y="296.0" width="6" height="9" rx="1.5"/><rect class="win" x="610.2" y="318.0" width="6" height="9" rx="1.5"/><rect class="win" x="626.2" y="340.0" width="6" height="9" rx="1.5"/><rect class="win" x="642.2" y="296.0" width="6" height="9" rx="1.5"/><rect class="win" x="642.2" y="318.0" width="6" height="9" rx="1.5"/><rect class="win" x="642.2" y="340.0" width="6" height="9" rx="1.5"/><rect class="win" x="642.2" y="362.0" width="6" height="9" rx="1.5"/><rect x="666.2" y="321.4" width="79.4" height="110.6" rx="3"/><rect class="win" x="672.2" y="355.4" width="6" height="9" rx="1.5"/><rect class="win" x="688.2" y="333.4" width="6" height="9" rx="1.5"/><rect class="win" x="688.2" y="377.4" width="6" height="9" rx="1.5"/><rect class="win" x="704.2" y="355.4" width="6" height="9" rx="1.5"/><rect class="win" x="704.2" y="377.4" width="6" height="9" rx="1.5"/><rect class="win" x="720.2" y="333.4" width="6" height="9" rx="1.5"/><rect class="win" x="720.2" y="355.4" width="6" height="9" rx="1.5"/><rect class="win" x="720.2" y="377.4" width="6" height="9" rx="1.5"/><rect x="758.4" y="287.9" width="61.2" height="144.1" rx="3"/><rect x="787.0" y="269.9" width="4" height="20"/><rect class="win" x="764.4" y="321.9" width="6" height="9" rx="1.5"/><rect class="win" x="764.4" y="343.9" width="6" height="9" rx="1.5"/><rect class="win" x="780.4" y="343.9" width="6" height="9" rx="1.5"/><rect class="win" x="780.4" y="365.9" width="6" height="9" rx="1.5"/><rect class="win" x="796.4" y="299.9" width="6" height="9" rx="1.5"/><rect class="win" x="796.4" y="321.9" width="6" height="9" rx="1.5"/><rect class="win" x="796.4" y="343.9" width="6" height="9" rx="1.5"/></g>
    <rect y="392" width="800" height="28" fill="#101312"/>
    <style>.win{fill:#ffc93c;opacity:.75}</style>
  </g>
</svg>